<!DOCTYPE svg PUBLIC "-//W3C//DTD SVG 1.1//EN" "http://www.w3.org/Graphics/SVG/1.1/DTD/svg11.dtd">
<!-- Uploaded to: SVG Repo, www.svgrepo.com, Transformed by: SVG Repo Mixer Tools -->
<svg fill="#ffffff" version="1.1" id="Capa_1" xmlns="http://www.w3.org/2000/svg" xmlns:xlink="http://www.w3.org/1999/xlink" width="800px" height="800px" viewBox="0 0 521.68 521.681" xml:space="preserve">
<g id="SVGRepo_bgCarrier" stroke-width="0"/>
<g id="SVGRepo_tracerCarrier" stroke-linecap="round" stroke-linejoin="round"/>
<g id="SVGRepo_iconCarrier"> <g> <g> <path d="M261.08,62.977c32.905-13.512,45.584-44.561,31.096-58.073c-14.486-13.512-31.096,5.183-31.096,5.183h-0.125 c0,0-16.6-18.695-31.097-5.183c-14.497,13.512-1.807,44.542,31.097,58.054L261.08,62.977z"/> <path d="M50.465,506.543c0,8.358,44.954,15.138,100.406,15.138c55.453,0,100.407-6.779,100.407-15.138 c0-7.793-39.054-14.2-89.247-15.042V329.589c28.63-4.666,47.812-30.045,47.812-60.751V77.024c0-5.278-4.284-9.562-9.562-9.562 h-95.625c-5.278,0-9.562,4.284-9.562,9.562v191.823c0,30.696,19.183,56.075,47.812,60.751v161.864 C91.192,492.075,50.465,498.587,50.465,506.543z"/> <path d="M429.782,268.848V77.024c0-5.278-4.285-9.562-9.562-9.562h-95.625c-5.279,0-9.562,4.284-9.562,9.562v191.823 c0,30.696,19.182,56.075,47.812,60.751v161.864c-51.715,0.612-92.441,7.124-92.441,15.08c0,8.358,44.953,15.138,100.406,15.138 s100.406-6.779,100.406-15.138c0-7.793-39.053-14.2-89.246-15.042V329.589C410.598,324.923,429.782,299.544,429.782,268.848z"/> </g> </g> </g>
</svg>