<!DOCTYPE svg PUBLIC "-//W3C//DTD SVG 1.1//EN" "http://www.w3.org/Graphics/SVG/1.1/DTD/svg11.dtd">
<!-- Uploaded to: SVG Repo, www.svgrepo.com, Transformed by: SVG Repo Mixer Tools -->
<svg fill="#ffffff" version="1.1" id="Capa_1" xmlns="http://www.w3.org/2000/svg" xmlns:xlink="http://www.w3.org/1999/xlink" width="800px" height="800px" viewBox="0 0 494.785 494.785" xml:space="preserve">
<g id="SVGRepo_bgCarrier" stroke-width="0"/>
<g id="SVGRepo_tracerCarrier" stroke-linecap="round" stroke-linejoin="round"/>
<g id="SVGRepo_iconCarrier"> <g> <g> <polygon points="459.643,211.784 35.144,211.784 0,246.927 0,247.858 35.144,283.002 459.643,283.002 494.785,247.858 494.785,246.927 "/> <path d="M447.219,163.474c0-59.577-48.297-107.874-107.873-107.874H155.441c-59.577,0-107.874,48.297-107.874,107.874v12.802 h399.652V163.474L447.219,163.474z M135.393,124.393c-7.18,0-13-5.82-13-13s5.82-13,13-13s13,5.82,13,13 S142.573,124.393,135.393,124.393z M200.393,161.393c-7.18,0-13-5.82-13-13s5.82-13,13-13s13,5.82,13,13 S207.573,161.393,200.393,161.393z M213.393,103.393c-7.18,0-13-5.82-13-13s5.82-13,13-13s13,5.82,13,13 S220.573,103.393,213.393,103.393z M283.727,124.393c-7.18,0-13-5.82-13-13s5.82-13,13-13c7.181,0,13,5.82,13,13 S290.907,124.393,283.727,124.393z M348.727,161.393c-7.18,0-13-5.82-13-13s5.82-13,13-13s13,5.82,13,13 S355.906,161.393,348.727,161.393z M361.727,103.393c-7.18,0-13-5.82-13-13s5.82-13,13-13s13,5.82,13,13 S368.906,103.393,361.727,103.393z"/> <path d="M47.567,331.311c0,59.578,48.297,107.875,107.874,107.875h183.905c59.576,0,107.873-48.297,107.873-107.875V318.51H47.567 V331.311z"/> </g> </g> </g>
</svg>